<svg height="28" viewBox="0 0 44 28" width="44" xmlns="http://www.w3.org/2000/svg"><g fill="none" fill-rule="evenodd"><path d="m37.494 13.6693-7.475-13.669h-27.531c-1.374 0-2.488 1.128-2.488 2.519v22.324c0 1.39 1.114 2.518 2.488 2.518h27.505zm-23.504 6.157h-2.234l-5.501-8.994h-.051v8.994h-2.014v-12.231h2.234l5.518 9.011h.034v-9.011h2.014zm2.084 0h2.116v-12.232h-2.116zm13.965-12.231v12.231h-2.116v-5.516h-5.501v5.516h-2.116v-12.231h2.116v4.865h5.501v-4.865z" fill="#767575"/><path d="m31.8689 27.362 7.492-13.693-7.467-13.669h1.87c1.023 0 2.266.743 2.761 1.648l6.566 12.021-6.589 12.046c-.496.906-1.739 1.647-2.762 1.647z" fill="#004a80"/></g></svg>