
<svg width="44px" height="28px" viewBox="0 0 44 28" version="1.1" xmlns="http://www.w3.org/2000/svg" xmlns:xlink="http://www.w3.org/1999/xlink">
  <g id="Page-1" stroke="none" stroke-width="1" fill="none" fill-rule="evenodd">
      <g id="Group">
          <path d="M37.494,13.6693 L30.019,0.0003 L2.488,0.0003 C1.114,0.0003 0,1.1283 0,2.5193 L0,24.8433 C0,26.2333 1.114,27.3613 2.488,27.3613 L29.993,27.3613 L37.494,13.6693 Z M13.99,19.8263 L11.756,19.8263 L6.255,10.8323 L6.204,10.8323 L6.204,19.8263 L4.19,19.8263 L4.19,7.5953 L6.424,7.5953 L11.942,16.6063 L11.976,16.6063 L11.976,7.5953 L13.99,7.5953 L13.99,19.8263 Z M16.074,19.8263 L18.19,19.8263 L18.19,7.5943 L16.074,7.5943 L16.074,19.8263 Z M30.039,7.5953 L30.039,19.8263 L27.923,19.8263 L27.923,14.3103 L22.422,14.3103 L22.422,19.8263 L20.306,19.8263 L20.306,7.5953 L22.422,7.5953 L22.422,12.4603 L27.923,12.4603 L27.923,7.5953 L30.039,7.5953 Z" id="Fill-2344" fill="#767575"></path>
          <path d="M31.8689,27.362 L39.3609,13.669 L31.8939,0 L33.7639,0 C34.7869,0 36.0299,0.743 36.5249,1.648 L43.0909,13.669 L36.5019,25.715 C36.0059,26.621 34.7629,27.362 33.7399,27.362 L31.8689,27.362 Z" id="Fill-2346" fill="#004A80"></path>
      </g>
  </g>
</svg>
