<svg height="55" viewBox="0 0 174 55" width="174" xmlns="http://www.w3.org/2000/svg"><g fill="none" fill-rule="evenodd"><path d="m53.981 35.048c0 .523-.422.946-.946.946h-13.737c-.522 0-.946-.423-.946-.946v-13.734c0-.524.424-.949.946-.949h13.737c.524 0 .946.425.946.949z" fill="#bbd236"/><path d="m53.981 53.048c0 .523-.422.945-.946.945h-13.737c-.522 0-.946-.422-.946-.945v-13.738c0-.524.424-.947.946-.947h13.737c.524 0 .946.423.946.947z" fill="#bbd236"/><path d="m35.984 53.048c0 .523-.425.945-.949.945h-13.736c-.522 0-.947-.422-.947-.945v-13.738c0-.524.425-.947.947-.947h13.736c.524 0 .949.423.949.947z" fill="#bbd236"/><g fill="#004f4b"><path d="m36.934 0h16.101s.946 0 .946.947v16.099s0 .948-.946.948c-.947 0-16.101 0-16.101 0s-.946 0-.946.946v16.099s0 .946-.948.946c-.946 0-16.1 0-16.1 0s-.947 0-.947.946v16.1s0 .948-.946.948c-.947 0-16.101 0-16.101 0s-.946 0-.946-.948c0-.946 0-16.1 0-16.1s0-.946.946-.946h16.101s.946 0 .946-.946c0-.947 0-16.099 0-16.099s0-.946.947-.946h16.1s.948 0 .948-.948c0-.946 0-16.099 0-16.099s0-.947.946-.947"/><path d="m60.009 22.835v-2.508h12.038v2.53h-4.629v12.974h-2.826v-12.974z"/><path d="m76.04 27.03h3.104c.957 0 1.89-.433 1.89-1.415v-1.139c0-1.095-.82-1.641-1.915-1.641h-3.079zm4.902 2.212 3.647 6.589h-3.145l-3.442-6.295h-1.962v6.295h-2.826v-15.504h5.93c2.851 0 4.719 1.276 4.719 4.126v1.186c0 1.915-1.119 3.078-2.921 3.603z"/><path d="m93.838 29.88-1.982-6.727-2.008 6.727zm-.228-9.668 4.97 15.619h-2.962l-1.074-3.671h-5.405l-1.092 3.671h-3.012l5.132-15.619z"/><path d="m100.477 35.831h2.825v-15.504h-2.825z"/><path d="m117.344 20.327h2.507v15.504h-3.924l-6.292-12.245v12.245h-2.508v-15.504h3.694l6.523 12.562z"/><path d="m123.706 35.831h2.829v-15.504h-2.829z"/><path d="m140.31 20.327h2.508v15.504h-3.921l-6.295-12.245v12.245h-2.509v-15.504h3.692l6.525 12.562z"/><path d="m151.581 27.258h5.809v6.909c-2.026 1.185-3.417 1.893-5.718 1.893-3.445 0-6.112-1.597-6.112-5.041v-5.881c0-3.285 2.783-5.04 6.088-5.04 2.025 0 3.808.594 5.265 1.938l-1.274 2.053c-1.117-.889-2.604-1.483-3.991-1.483-1.712 0-3.263.867-3.263 2.532v5.881c0 1.824 1.462 2.532 3.287 2.532 1.116 0 1.843-.091 2.87-.662v-3.353h-2.961z"/><path d="m162.776 24.202 1.688 1.938c1.046-.934 1.937-1.892 1.937-3.033 0-1.208-.641-1.823-1.874-1.823-1.363 0-1.751 1.048-1.751 1.551zm5.72 8.187-4.191-4.676c-1.529 1.46-3.445 2.35-3.445 4.331 0 1.394.729 2.737 3.28 2.737 1.966 0 3.129-1.092 4.356-2.392zm4.063-2.532-2.283 2.485 2.759 2.872-1.004.937-2.621-2.804c-1.321 1.547-2.896 2.713-5.221 2.713-2.897 0-4.7-1.279-4.7-3.9 0-2.416 2.238-3.762 3.969-5.335l-1.939-2.19v-1.916c0-1.55 1.299-2.643 2.987-2.643 1.987 0 3.171 1.093 3.171 2.964 0 1.619-1.05 2.828-2.325 3.9l4.034 4.49 2.19-2.438z"/><path d="m64.389 47.142v4.285h6.363v2.511h-9.192v-15.507h8.714v2.509h-5.885v3.807h4.95v2.395z"/><path d="m81.057 43.447c0-1.778-1.298-2.507-3.076-2.507h-2.351v10.511h2.097c1.779 0 3.33-.705 3.33-2.529zm-3.076-5.016c3.488 0 5.882 1.528 5.882 5.016v5.475c0 3.442-2.738 5.016-6.136 5.016h-4.878v-15.507z"/><path d="m95.602 38.431h2.829v10.533c0 3.445-2.738 5.2-6.133 5.2-3.468 0-6.18-1.733-6.18-5.2v-10.533h2.825v10.533c0 1.849 1.483 2.691 3.33 2.691 1.803 0 3.329-.866 3.329-2.691z"/><path d="m103.515 43.243v5.884c0 1.754 1.324 2.528 3.079 2.528 1.527 0 2.895-.409 3.921-1.321l1.232 2.075c-1.528 1.367-3.146 1.755-5.153 1.755-3.355 0-5.909-1.685-5.909-5.037v-5.884c0-3.171 2.671-5.039 5.883-5.039 2.509 0 3.675.684 5.113 2.167l-1.554 1.914c-.98-.913-2.029-1.575-3.559-1.575-1.662 0-3.053.915-3.053 2.533"/><path d="m121.439 47.985-1.984-6.725-2.008 6.725zm-.229-9.667 4.971 15.62h-2.966l-1.071-3.671h-5.405l-1.092 3.671h-3.009l5.126-15.62z"/><path d="m125.201 40.94v-2.509h12.038v2.533h-4.629v12.974h-2.826v-12.974z"/><path d="m139.176 53.937h2.824v-15.506h-2.824z"/><path d="m154.493 43.243c0-1.618-1.642-2.533-3.262-2.533h-.363c-1.663 0-3.283.892-3.283 2.511v5.906c0 1.754 1.553 2.528 3.305 2.528h.341c1.711 0 3.262-.795 3.262-2.528zm2.825-.022v5.906c0 3.304-2.799 5.037-6.087 5.037h-.341c-3.351 0-6.131-1.685-6.131-5.037v-5.906c0-3.195 2.892-5.017 6.109-5.017h.363c3.146 0 6.087 1.868 6.087 5.017z"/><path d="m170.464 38.431h2.505v15.507h-3.918l-6.295-12.246v12.246h-2.509v-15.507h3.696l6.521 12.566z"/><path d="m68.202 4.702c0-1.3-1.357-2.094-2.656-2.094h-.245c-1.329 0-2.672.78-2.672 2.081v3.926c0 1.402 1.286 2.081 2.688 2.081h.229c1.359 0 2.656-.694 2.656-2.081zm1.099-.013v3.926c0 2.008-1.776 3.091-3.755 3.091h-.229c-2.023 0-3.785-1.054-3.785-3.091v-3.926c0-1.921 1.832-3.091 3.769-3.091h.245c1.906 0 3.755 1.183 3.755 3.091z"/><path d="m79.865 11.563h1.113v-7.078h-1.113z"/><path d="m83.59 6.869v2.31c0 1.055.762 1.517 1.804 1.517.677 0 1.27-.173 1.891-.665l.461.838c-.749.678-1.473.837-2.411.837-1.674 0-2.841-.837-2.841-2.527v-2.31c0-1.575 1.228-2.528 2.828-2.528 1.109 0 1.762.305 2.467 1.011l-.634.78c-.491-.492-1.158-.78-1.833-.78-.97 0-1.732.563-1.732 1.517"/><path d="m89.76 6.797v.837l3.524-.505v-.404c0-.839-.709-1.387-1.675-1.387-.999 0-1.849.592-1.849 1.459zm4.275 3.205.52.78c-.737.649-1.734.924-2.699.924-1.735 0-3.192-.824-3.192-2.584v-2.325c0-1.503 1.299-2.456 2.958-2.456 1.574 0 2.788.968 2.788 2.427v1.025l-4.65.664v.665c0 1.068 1.067 1.574 2.154 1.574.95 0 1.759-.39 2.121-.694z"/><path d="m102.88 6.853c0-.952-.911-1.515-1.862-1.515-.954 0-1.891.563-1.891 1.515v2.297c0 .982.908 1.531 1.891 1.531.951 0 1.862-.562 1.862-1.531zm1.097 0v2.297c0 1.575-1.401 2.542-2.959 2.542-1.575 0-2.992-.967-2.992-2.542v-2.297c0-1.559 1.359-2.526 2.992-2.526 1.674 0 2.959.967 2.959 2.526z"/><path d="m105.91 2.984c0-1.358 1.071-2.021 2.325-2.021.392 0 .925.1 1.329.26l-.229.866c-.333-.102-.708-.174-1.013-.174-.837 0-1.316.361-1.316 1.213v1.357h1.736v.838h-1.736v6.24h-1.096v-6.24h-1.445v-.838h1.445z"/><path d="m112.764 11.563h1.096v-9.821h-1.096z"/><path d="m121.719 6.839v4.724h-1.101v-4.579c0-1.011-.579-1.646-1.57-1.646-1.013 0-2.171.866-2.171 1.877v4.348h-1.108v-7.078h.994l.114 1.287c.55-.867 1.346-1.445 2.399-1.445 1.604 0 2.443.924 2.443 2.512"/><path d="m127.293 10.364.274.822c-.332.145-1.128.449-1.762.449-1.187 0-1.878-.593-1.878-1.778v-4.519h-1.346v-.853h1.346v-2.122h1.098v2.122h1.918v.853h-1.918v4.433c0 .521.289.881.806.881.536 0 1.287-.217 1.462-.288"/><path d="m132.289 4.443-.204 1.025c-.171-.043-.479-.072-.708-.072-.938 0-1.575.938-1.575 1.935v4.232h-1.113v-7.078h.867l.159 1.372c.278-.78.97-1.516 1.823-1.516.288 0 .534.03.751.102"/><path d="m137.427 8.154-3.318.577v.708c0 .809.618 1.271 1.43 1.271.862 0 1.888-.534 1.888-1.416zm1.129-1.344v4.753h-.938l-.145-.954c-.522.837-1.258 1.083-2.184 1.083-1.354 0-2.279-.837-2.279-2.21v-1.386l4.433-.78v-.506c0-1.01-.549-1.487-1.559-1.487-.824 0-1.804.419-2.236.679l-.379-.794c.608-.391 1.762-.867 2.728-.867 1.578 0 2.559.882 2.559 2.469z"/><path d="m150.238 6.667v4.896h-1.098v-4.651c0-.969-.463-1.574-1.417-1.574-1.113 0-1.963.78-1.963 1.863v4.362h-1.096v-4.724c0-.953-.479-1.53-1.417-1.53-.966 0-1.921.981-1.921 1.935v4.319h-1.112v-7.078h.971l.083 1.242c.433-.809 1.315-1.4 2.255-1.4 1.053 0 1.833.346 2.094 1.371.459-.838 1.31-1.371 2.326-1.371 1.516 0 2.295.823 2.295 2.34"/><path d="m156.531 4.485h1.096v4.694c0 1.573-1.354 2.527-2.926 2.527-1.576 0-2.936-.954-2.936-2.527v-4.694h1.112v4.694c0 .953.854 1.517 1.824 1.517.938 0 1.83-.564 1.83-1.517z"/><path d="m162.973 4.443-.2 1.025c-.175-.043-.479-.072-.709-.072-.939 0-1.576.938-1.576 1.935v4.232h-1.111v-7.078h.865l.159 1.372c.276-.78.967-1.516 1.821-1.516.288 0 .534.03.751.102"/><path d="m168.114 8.154-3.321.577v.708c0 .809.62 1.271 1.43 1.271.866 0 1.891-.534 1.891-1.416zm1.125-1.344v4.753h-.937l-.143-.954c-.524.837-1.258 1.083-2.182 1.083-1.359 0-2.284-.837-2.284-2.21v-1.386l4.434-.78v-.506c0-1.01-.546-1.487-1.559-1.487-.822 0-1.804.419-2.237.679l-.376-.794c.605-.391 1.76-.867 2.729-.867 1.575 0 2.555.882 2.555 2.469z"/><path d="m171.06 11.563h1.099v-10.254h-1.099z"/><path d="m75.86 2.984c0-1.358 1.068-2.021 2.327-2.021.389 0 .923.1 1.327.26l-.23.866c-.333-.102-.708-.174-1.011-.174-.838 0-1.314.361-1.314 1.213v1.357h1.731v.838h-1.731v6.24h-1.099v-6.24h-1.442v-.838h1.442zm-4.355 0c0-1.358 1.068-2.021 2.326-2.021.39 0 .924.1 1.328.26l-.231.866c-.331-.102-.707-.174-1.01-.174-.837 0-1.315.361-1.315 1.213v1.357h1.931v.838h-1.931v6.24h-1.098v-6.24h-1.444v-.838h1.444z"/></g></g></svg>